<svg width="80" height="80" viewBox="0 0 80 80" fill="none" xmlns="http://www.w3.org/2000/svg">
<g opacity="0.3">
<path d="M16.6641 43.3334H26.6641M6.66406 30L13.3307 33.3334L17.5662 20.6269C18.4404 18.0042 18.8776 16.6928 19.6884 15.7233C20.4043 14.8672 21.3238 14.2044 22.3624 13.796C23.5386 13.3334 24.9209 13.3334 27.6855 13.3334H52.3093C55.0739 13.3334 56.4562 13.3334 57.6324 13.796C58.671 14.2044 59.5905 14.8672 60.3064 15.7233C61.1172 16.6928 61.5543 18.0042 62.4286 20.6269L66.6641 33.3334L73.3307 30M53.3307 43.3334H63.3307M22.6641 33.3334H57.3307C62.9313 33.3334 65.7315 33.3334 67.8706 34.4233C69.7523 35.382 71.2821 36.9118 72.2408 38.7935C73.3307 40.9326 73.3307 43.7328 73.3307 49.3334V58.3334C73.3307 59.8822 73.3307 60.6566 73.2026 61.3006C72.6766 63.9452 70.6093 66.0126 67.9647 66.5386C67.3207 66.6667 66.5462 66.6667 64.9974 66.6667H63.3307C59.6488 66.6667 56.6641 63.6819 56.6641 60C56.6641 59.0796 55.9179 58.3334 54.9974 58.3334H24.9974C24.0769 58.3334 23.3307 59.0796 23.3307 60C23.3307 63.6819 20.346 66.6667 16.6641 66.6667H14.9974C13.4485 66.6667 12.6741 66.6667 12.0301 66.5386C9.38552 66.0126 7.31821 63.9452 6.79216 61.3006C6.66406 60.6566 6.66406 59.8822 6.66406 58.3334V49.3334C6.66406 43.7328 6.66406 40.9326 7.754 38.7935C8.71273 36.9118 10.2425 35.382 12.1242 34.4233C14.2633 33.3334 17.0635 33.3334 22.6641 33.3334Z" stroke="white" stroke-width="2" stroke-linecap="round" stroke-linejoin="round"/>
</g>
</svg>
