<svg width="80" height="80" viewBox="0 0 80 80" fill="none" xmlns="http://www.w3.org/2000/svg">
<g opacity="0.3">
<path d="M21.6667 66.6666H16.6667C12.9848 66.6666 10 63.6819 10 60V13.3333C10 9.65139 12.9848 6.66663 16.6667 6.66663H63.3333C67.0152 6.66663 70 9.65139 70 13.3333V60C70 63.6819 67.0152 66.6666 63.3333 66.6666H58.3333M40 63.3333C45.5228 63.3333 50 58.8561 50 53.3333C50 47.8104 45.5228 43.3333 40 43.3333C34.4772 43.3333 30 47.8104 30 53.3333C30 58.8561 34.4772 63.3333 40 63.3333ZM40 63.3333L40.0715 63.3326L29.4289 73.9752L20.0008 64.5471L30.0655 54.4824M40 63.3333L50.6427 73.9752L60.0708 64.5471L50.0061 54.4824M30 20H50M23.3333 31.6666H56.6667" stroke="white" stroke-width="2" stroke-linecap="round" stroke-linejoin="round"/>
</g>
</svg>
