<svg width="80" height="80" viewBox="0 0 80 80" fill="none" xmlns="http://www.w3.org/2000/svg">
<g opacity="0.3">
<path d="M23.3307 31.6667L6.66406 40L38.8048 56.0704C39.2421 56.289 39.4607 56.3984 39.6901 56.4414C39.8932 56.4795 40.1016 56.4795 40.3047 56.4414C40.5341 56.3984 40.7527 56.289 41.19 56.0704L73.3307 40L56.6641 31.6667M23.3307 48.3333L6.66406 56.6667L38.8048 72.7371C39.2421 72.9557 39.4607 73.065 39.6901 73.108C39.8932 73.1461 40.1016 73.1461 40.3047 73.108C40.5341 73.065 40.7527 72.9557 41.19 72.7371L73.3307 56.6667L56.6641 48.3333M6.66406 23.3333L38.8048 7.26296C39.2421 7.04433 39.4607 6.93501 39.6901 6.89198C39.8932 6.85388 40.1016 6.85388 40.3047 6.89198C40.5341 6.93501 40.7527 7.04433 41.19 7.26296L73.3307 23.3333L41.19 39.4037C40.7527 39.6224 40.5341 39.7317 40.3047 39.7747C40.1016 39.8128 39.8932 39.8128 39.6901 39.7747C39.4607 39.7317 39.2421 39.6224 38.8048 39.4037L6.66406 23.3333Z" stroke="white" stroke-width="2" stroke-linecap="round" stroke-linejoin="round"/>
</g>
</svg>
