<svg width="80" height="80" viewBox="0 0 80 80" fill="none" xmlns="http://www.w3.org/2000/svg">
<g opacity="0.3">
<path d="M40.001 40.0005H40.0343M51.7861 51.7856C36.1651 67.4066 18.2255 74.7935 11.7167 68.2847C5.20797 61.776 12.5949 43.8363 28.2159 28.2154C43.8368 12.5944 61.7765 5.20747 68.2853 11.7162C74.794 18.2249 67.4071 36.1646 51.7861 51.7856ZM51.786 28.2148C67.4069 43.8357 74.7939 61.7754 68.2851 68.2841C61.7764 74.7929 43.8367 67.406 28.2157 51.785C12.5948 36.164 5.20784 18.2243 11.7166 11.7156C18.2253 5.20686 36.165 12.5938 51.786 28.2148ZM41.6676 40.0005C41.6676 40.921 40.9215 41.6671 40.001 41.6671C39.0805 41.6671 38.3343 40.921 38.3343 40.0005C38.3343 39.08 39.0805 38.3338 40.001 38.3338C40.9215 38.3338 41.6676 39.08 41.6676 40.0005Z" stroke="white" stroke-width="2" stroke-linecap="round" stroke-linejoin="round"/>
</g>
</svg>
