<svg width="147" height="58" viewBox="0 0 147 58" fill="none" xmlns="http://www.w3.org/2000/svg">
<path d="M122.59 40.7026C122.59 40.9339 122.938 41.1652 123.17 41.2809C123.286 41.2809 123.286 41.3965 123.17 41.6278C122.358 43.3625 121.661 44.2877 120.733 45.6755C119.805 47.0633 118.761 48.1041 117.6 49.0293C115.744 50.5328 113.191 52.2675 111.103 51.111C110.174 50.6484 109.71 49.2606 109.826 48.2198C109.826 45.2129 111.219 42.0904 113.655 39.0835C116.672 35.3828 120.037 33.4167 122.242 34.4576C124.562 35.4984 123.75 38.1583 122.822 40.24C122.59 40.3557 122.59 40.587 122.59 40.7026ZM146.956 17.3415C147.072 17.1102 146.956 16.8789 146.608 16.8789C144.752 16.8789 142.199 16.8789 140.226 16.8789C139.762 16.8789 139.53 16.9946 139.298 17.3415C138.602 18.7293 129.668 32.0289 128.043 34.5732C127.811 34.9202 127.463 34.9202 127.347 34.4576C127.115 32.9541 125.839 31.2194 123.75 30.2942C122.126 29.716 120.617 29.4847 118.993 29.716C116.092 30.0629 113.539 31.682 111.219 33.4167C107.738 36.0767 104.837 39.4305 101.008 41.8591C98.9193 43.2469 96.0185 44.4034 94.1621 42.6686C92.4216 41.0496 92.6536 37.4644 95.3224 34.6889C95.5544 34.4576 95.9025 34.6889 95.9025 34.9202C95.6705 36.1923 96.0186 37.3488 96.9468 38.274C98.1071 39.3148 99.7316 39.4305 101.24 38.7366C102.98 37.927 103.909 36.308 104.141 34.4576C104.605 31.682 102.4 29.1377 99.7315 29.0221C97.527 28.9064 95.4384 29.6003 93.3498 31.335C92.3056 32.1446 91.7254 32.8385 90.7972 34.1106C90.5651 34.4576 90.217 34.4576 90.217 33.995C90.333 30.4099 88.8246 28.3282 85.8078 28.3282C83.4872 28.2125 81.0505 29.4847 79.078 31.1037C76.9894 32.8385 75.1329 35.0358 73.1604 37.1175C72.9284 37.3488 72.6963 37.3488 72.5803 36.8862C72.4642 34.4576 71.8841 32.1446 70.8398 30.5255C70.4917 29.9473 69.5635 29.716 68.9833 30.0629C68.6352 30.2942 67.5909 30.7568 66.7787 31.335C66.4306 31.682 66.1986 32.1446 66.4306 32.7228C67.4749 36.308 67.2428 40.3557 65.8505 43.7095C64.5741 46.832 61.9054 49.7232 58.8886 50.6484C56.9161 51.2267 54.8275 50.9954 53.5512 49.2606C51.8107 46.832 52.5069 42.553 55.1756 39.0835C57.4962 35.961 60.8611 33.995 64.226 32.7228C64.5741 32.6072 64.6902 32.2602 64.5741 32.0289C64.3421 31.4507 64.11 30.7568 63.994 30.4099C63.6459 29.6003 62.8337 29.4847 61.7894 29.6003C59.3527 29.8316 57.1481 30.7568 54.9435 31.9133C49.258 34.9202 46.3572 40.8183 45.0809 43.9408C44.5007 45.4442 43.9206 46.3694 43.3404 47.179C42.4122 48.3354 41.2519 49.3763 39.2793 51.111C39.0473 51.3423 38.9312 51.5736 39.0473 51.9206C39.2793 52.3832 40.3236 53.8866 40.6717 54.0022C41.0198 54.2335 41.3679 53.8866 41.6 53.7709C42.9923 52.8458 44.7328 51.2267 45.6611 50.1858C46.0091 49.8389 46.2412 49.9545 46.4733 50.5328C47.2855 53.3084 49.258 55.6213 52.1588 56.5465C57.3802 58.2813 62.8337 55.737 66.8947 51.3423C69.4474 48.5667 70.4917 46.7164 71.42 45.4442C73.1604 43.3625 76.4093 38.7366 80.3544 35.7297C81.8628 34.5732 83.4872 33.7637 84.4154 34.3419C85.1116 34.8045 85.3437 35.8454 84.1834 37.8114C80.1223 45.2129 74.2047 53.7709 73.1604 55.9683C72.9284 56.3152 73.1604 56.6622 73.5085 56.6622C75.5971 56.6622 77.6856 56.6622 79.6582 56.6622C80.0063 56.6622 80.1223 56.5465 80.2383 56.3152C83.3712 51.458 86.2719 46.832 89.4048 42.0904C89.6368 41.8591 89.7529 41.9748 89.7529 42.206C89.8689 43.3625 90.101 44.866 90.7972 45.7912C91.9575 47.6416 93.6979 48.4511 95.5544 48.4511C97.0628 48.4511 97.759 48.2198 99.3835 47.6416C100.66 47.179 101.704 46.4851 102.516 45.9068C102.98 45.5599 103.096 46.1381 103.096 46.2538C102.4 50.0702 103.329 54.6961 107.042 56.5465C111.683 58.7439 116.672 55.6213 119.573 52.7301C119.805 52.4988 120.153 52.4988 120.153 53.0771C120.269 54.1179 120.733 55.5057 121.661 56.3152C124.098 58.7439 128.971 57.8187 133.961 54.0022C137.094 51.5736 140.458 48.1041 143.359 44.519C143.475 44.4034 143.591 44.1721 143.359 43.9408C142.895 43.4782 142.199 42.8999 141.735 42.553C141.503 42.3217 141.271 42.4374 141.039 42.553C138.022 45.4442 135.237 48.798 131.292 51.458C130.016 52.3832 127.811 53.1927 126.883 51.8049C126.535 51.3423 126.535 50.6484 126.883 49.7232C127.579 46.832 146.028 18.9606 146.956 17.3415Z" fill="#00095B"/>
<path d="M60.5132 20.6952C60.6292 21.1578 60.7452 21.1578 60.9773 21.1578C61.9055 20.9265 62.9498 20.2326 63.53 19.3074C64.1101 18.4979 64.3422 17.3414 63.762 16.8788C63.2979 16.4162 62.4857 16.5319 61.9056 17.1101C60.6292 18.0353 60.2811 19.5387 60.5132 20.6952ZM13.6366 56.5464C6.79078 56.5464 0.757166 52.383 0.0609796 45.0972C-0.287114 41.0494 0.873197 37.4643 3.07779 34.4574C5.16635 31.7975 8.53125 29.6002 11.5481 29.0219C12.4763 28.7906 13.7526 28.9063 14.3328 29.6002C15.145 30.5254 14.913 31.6819 14.1007 32.0288C11.8962 33.1853 9.22744 35.1513 7.83506 37.8113C6.79078 40.0086 6.55872 42.5529 8.18316 45.0972C10.9679 49.2605 18.626 49.3762 25.7039 42.7842C27.4443 41.1651 29.0688 39.6616 30.6932 37.8113C33.826 34.2261 34.8703 32.954 39.0474 27.1716C39.0474 27.0559 39.1635 27.0559 39.0474 26.9403C39.0474 26.8246 38.9314 26.8246 38.8154 26.8246C36.0306 26.8246 33.594 27.6342 31.2733 29.3689C30.5772 29.8315 29.6489 29.8315 29.1848 29.1376C28.7207 28.4437 29.0688 27.4029 29.881 26.9403C33.71 24.2803 37.8871 23.8177 42.0642 23.1238C42.0642 23.1238 42.2963 23.1238 42.6444 22.7769C44.3849 20.5796 45.6612 18.4979 47.5177 16.3006C49.3742 13.9876 51.8108 11.9059 53.6673 10.2868C56.22 8.08948 57.8445 7.39559 59.5849 6.4704C60.0491 6.2391 59.4689 6.0078 59.3529 6.0078C49.9543 4.27307 40.2077 1.96009 30.9253 5.42956C24.4275 7.85818 21.6428 12.9467 23.0351 16.3006C23.9634 18.7292 27.2123 19.0761 30.2291 17.6883C32.6657 16.4162 34.9863 14.5658 36.6108 12.0215C37.539 10.6338 39.3955 11.6746 38.3512 14.1032C35.5665 20.4639 30.4611 25.5525 24.0794 25.7838C18.626 26.0151 15.2611 21.9674 15.2611 17.1101C15.2611 7.51124 26.0519 1.15054 37.307 0.225352C50.8826 -0.931137 63.762 2.65398 77.3377 4.38872C87.6644 5.66085 97.6431 5.66085 107.97 3.23223C109.246 3.00093 110.058 3.81047 109.942 4.96696C109.826 6.70169 108.434 8.43643 105.069 10.4025C101.124 12.4841 97.063 13.178 92.8859 13.178C82.4431 13.178 72.9285 9.13032 62.9498 7.04864C62.9498 7.51124 63.0659 7.97383 62.7178 8.32078C57.2643 12.3685 52.275 16.4162 48.9101 22.1987C48.794 22.3143 48.794 22.43 49.0261 22.43C51.9269 22.3143 54.4796 22.1987 57.2643 21.9674C57.7284 21.9674 57.7284 21.8517 57.7284 21.5048C57.4964 19.5387 58.0765 17.2257 59.817 15.7223C61.5575 14.1032 63.8781 13.9876 65.3865 15.1441C67.1269 16.4162 66.8949 18.8448 65.9666 20.5796C65.0384 22.43 63.53 23.3551 62.0216 23.8177C62.0216 23.8177 61.6735 23.9334 61.7895 24.1647C61.9055 24.6273 63.8781 25.7838 64.1101 26.0151C64.3422 26.2464 64.2262 26.709 63.8781 27.0559C63.646 27.2872 63.2979 27.5185 62.9498 27.5185C62.6017 27.5185 62.3697 27.4029 61.9056 27.1716C60.9773 26.709 59.817 25.8994 59.1208 24.8586C58.8887 24.5116 58.7727 24.5116 58.0765 24.5116C55.1757 24.7429 50.6505 25.0899 47.5177 25.4368C46.8215 25.5525 46.7055 25.6681 46.4734 25.8994C41.6001 33.9949 36.2627 42.6685 30.5772 48.5666C24.1954 54.8117 19.0901 56.5464 13.6366 56.5464Z" fill="#00095B"/>
</svg>
